<svg width="359" height="81" viewBox="0 0 359 81" fill="none" xmlns="http://www.w3.org/2000/svg">
<path d="M0 61.7573L15.2894 52.8703C18.3997 60.1004 23.8334 63.6778 31.5531 63.6778C38.5232 63.6778 42.0833 61.569 42.0833 57.3515C42.0833 55.0167 40.959 53.2469 38.6357 52.0042C36.4247 50.6862 32.2276 49.1046 26.0069 47.4477C19.4865 45.6778 15.0271 43.682 10.2679 40.1046C5.77099 36.3766 3.22276 30.841 3.22276 23.6862C3.22276 16.4561 5.77099 10.7699 10.8674 6.43933C16.0389 2.10879 22.1471 0 29.2297 0C41.9708 0 51.9389 6.13808 57.5975 17.5858L42.6454 26.3598C39.8723 20.4854 35.975 17.3598 29.2297 17.3598C23.9084 17.3598 20.9105 20.0335 20.9105 23.272C20.9105 25.1548 21.8098 26.8494 23.5711 28.2803C25.4448 29.7113 29.2297 31.2929 34.8508 32.9498L42.0458 35.2845C43.6946 35.8494 45.9056 36.8285 48.4538 38.2971C51.1145 39.6151 53.1006 41.0837 54.4497 42.6276C57.2227 45.6402 59.771 50.7615 59.771 57.0879C59.771 64.5439 57.1103 70.3431 51.789 74.6736C46.4677 78.8912 39.4976 81 30.9535 81C15.177 81 4.42193 73.6569 0 61.7573Z" fill="black"/>
<path d="M119.504 1.54297V18.6769H99.5676V79.4551H81.8424V18.6769H61.9062V1.54297H119.504Z" fill="black"/>
<path d="M142.518 62.3212H173.509V79.4551H124.793V1.54297H172.947V18.6769H142.481V31.5932H170.174V48.5011H142.481V62.3212H142.518Z" fill="black"/>
<path d="M213.565 1.54297C221.209 1.54297 227.618 4.10364 232.826 9.33795C238.035 14.5723 240.696 20.7856 240.696 28.2417C240.696 35.6978 238.035 41.9112 232.826 47.1455C227.618 52.3798 221.209 54.9404 213.565 54.9404H201.948V79.4174H184.223V1.54297H213.565ZM213.565 38.2961C218.999 38.2961 222.971 33.9656 222.971 28.2794C222.971 22.5932 218.999 18.2626 213.565 18.2626H201.948V38.2961H213.565Z" fill="black"/>
<path d="M276.6 1.54297C284.245 1.54297 290.653 4.10364 295.862 9.33795C301.07 14.5723 303.731 20.7856 303.731 28.2417C303.731 35.6978 301.07 41.9112 295.862 47.1455C290.653 52.3798 284.245 54.9404 276.6 54.9404H264.983V79.4174H247.258V1.54297H276.6ZM276.6 38.2961C282.034 38.2961 286.006 33.9656 286.006 28.2794C286.006 22.5932 282.034 18.2626 276.6 18.2626H264.983V38.2961H276.6Z" fill="black"/>
<path d="M328.006 62.3212H358.997V79.4551H310.281V1.54297H358.435V18.6769H327.969V31.5932H355.662V48.5011H327.969V62.3212H328.006Z" fill="black"/>
</svg>
