<svg width="25" height="24" viewBox="0 0 25 24" fill="none" xmlns="http://www.w3.org/2000/svg">
<path fill-rule="evenodd" clip-rule="evenodd" d="M24.5 12C24.5 18.6274 19.1274 24 12.5 24C5.87258 24 0.5 18.6274 0.5 12C0.5 5.37258 5.87258 0 12.5 0C19.1274 0 24.5 5.37258 24.5 12ZM12.93 8.85894C11.7628 9.34441 9.43011 10.3492 5.93187 11.8733C5.36381 12.0992 5.06624 12.3202 5.03915 12.5363C4.99336 12.9015 5.45069 13.0453 6.07345 13.2411C6.15816 13.2678 6.24593 13.2954 6.33592 13.3246C6.94862 13.5238 7.7728 13.7568 8.20127 13.7661C8.58992 13.7744 9.02371 13.6142 9.50262 13.2854C12.7711 11.079 14.4584 9.96383 14.5643 9.93978C14.639 9.92282 14.7426 9.9015 14.8127 9.96386C14.8829 10.0262 14.876 10.1443 14.8686 10.176C14.8233 10.3692 13.0281 12.0381 12.0991 12.9018C11.8095 13.171 11.6041 13.362 11.5621 13.4057C11.468 13.5034 11.3721 13.5958 11.28 13.6846C10.7107 14.2334 10.2839 14.6448 11.3036 15.3168C11.7936 15.6397 12.1857 15.9068 12.5769 16.1732C13.0041 16.4641 13.4303 16.7543 13.9816 17.1157C14.1221 17.2078 14.2562 17.3034 14.3869 17.3966C14.884 17.751 15.3307 18.0694 15.8826 18.0187C16.2032 17.9892 16.5344 17.6876 16.7027 16.7884C17.1002 14.6632 17.8816 10.0585 18.0622 8.16099C18.078 7.99474 18.0581 7.78198 18.0421 7.68859C18.0261 7.59519 17.9927 7.46212 17.8713 7.36361C17.7276 7.24695 17.5056 7.22235 17.4063 7.2241C16.955 7.23205 16.2625 7.47283 12.93 8.85894Z" fill="black"/>
</svg>
