<svg width="23" height="23" viewBox="0 0 23 23" fill="none" xmlns="http://www.w3.org/2000/svg">
<g clip-path="url(#clip0_2699_1556)">
<path d="M0 11.04C0 5.83568 0 3.23354 1.61677 1.61677C3.23354 0 5.83568 0 11.04 0H11.96C17.1643 0 19.7664 0 21.3832 1.61677C23 3.23354 23 5.83568 23 11.04V11.96C23 17.1643 23 19.7664 21.3832 21.3832C19.7664 23 17.1643 23 11.96 23H11.04C5.83568 23 3.23354 23 1.61677 21.3832C0 19.7664 0 17.1643 0 11.96V11.04Z" fill="black"/>
<path d="M12.2365 16.5689C6.99442 16.5689 4.00447 12.9751 3.87988 6.99512H6.50572C6.59197 11.3843 8.52775 13.2434 10.0611 13.6268V6.99512H12.5337V10.7805C14.0478 10.6176 15.6385 8.89262 16.1752 6.99512H18.6477C18.2356 9.33345 16.5106 11.0585 15.284 11.7676C16.5106 12.3426 18.4753 13.8472 19.2228 16.5689H16.501C15.9165 14.748 14.4599 13.3393 12.5337 13.1476V16.5689H12.2365Z" fill="white"/>
</g>
<defs>
<clipPath id="clip0_2699_1556">
<rect width="23" height="23" fill="white"/>
</clipPath>
</defs>
</svg>
